<?xml version="1.0" encoding="UTF-8" standalone="no"?>
<svg
   xmlns:dc="http://purl.org/dc/elements/1.1/"
   xmlns:cc="http://creativecommons.org/ns#"
   xmlns:rdf="http://www.w3.org/1999/02/22-rdf-syntax-ns#"
   xmlns:svg="http://www.w3.org/2000/svg"
   xmlns="http://www.w3.org/2000/svg"
   xmlns:sodipodi="http://sodipodi.sourceforge.net/DTD/sodipodi-0.dtd"
   xmlns:inkscape="http://www.inkscape.org/namespaces/inkscape"
   t="1533352106606"
   class="icon"
   style=""
   viewBox="0 0 1024 1024"
   version="1.1"
   p-id="8763"
   width="200"
   height="200"
   id="svg8"
   sodipodi:docname="重要提醒_Pro.svg"
   inkscape:version="0.92.2pre0 (973e216, 2017-07-25)">
  <metadata
     id="metadata12">
    <rdf:RDF>
      <cc:Work
         rdf:about="">
        <dc:format>image/svg+xml</dc:format>
        <dc:type
           rdf:resource="http://purl.org/dc/dcmitype/StillImage" />
        <dc:title></dc:title>
      </cc:Work>
    </rdf:RDF>
  </metadata>
  <sodipodi:namedview
     pagecolor="#ffffff"
     bordercolor="#666666"
     borderopacity="1"
     objecttolerance="10"
     gridtolerance="10"
     guidetolerance="10"
     inkscape:pageopacity="0"
     inkscape:pageshadow="2"
     inkscape:window-width="1920"
     inkscape:window-height="1030"
     id="namedview10"
     showgrid="true"
     inkscape:zoom="26.700352"
     inkscape:cx="-1.9261976"
     inkscape:cy="102.18919"
     inkscape:window-x="0"
     inkscape:window-y="31"
     inkscape:window-maximized="1"
     inkscape:current-layer="svg8">
    <inkscape:grid
       type="xygrid"
       id="grid822" />
  </sodipodi:namedview>
  <defs
     id="defs4">
    <style
       type="text/css"
       id="style2" />
  </defs>
  <path
     d="M 512.25232,0 C 229.6957,0 -0.03877353,229.62235 -0.03877353,512.04109 c 0,282.41874 229.73447353,512.04111 512.29109353,512.04111 282.55663,0 512.29108,-229.62237 512.29108,-512.04111 C 1024.5434,229.62235 793.9705,0 512.25232,0 Z m -31.86099,260.62975 c 0,-17.59879 14.2536,-31.0074 31.02255,-31.0074 17.60738,0 31.02253,14.24665 31.02253,31.0074 v 409.80048 c 0,17.59879 -14.25361,31.0074 -31.02253,31.0074 -17.6074,0 -31.02255,-14.24663 -31.02255,-31.0074 z m 31.86099,500.30858 c 19.2843,0 34.37634,15.08467 34.37634,34.35954 0,19.27487 -15.09204,34.35955 -34.37634,34.35955 -19.28428,0 -34.37633,-15.08468 -34.37633,-34.35955 -0.83846,-18.43683 15.09205,-34.35954 34.37633,-34.35954 z"
     p-id="8764"
     id="path6"
     inkscape:connector-curvature="0"
     style="fill:#b0b6b6;stroke-width:1.15995073" />
</svg>
