<?xml version="1.0" standalone="no"?><!DOCTYPE svg PUBLIC "-//W3C//DTD SVG 1.1//EN" "http://www.w3.org/Graphics/SVG/1.1/DTD/svg11.dtd"><svg t="1520585420641" class="icon" style="" viewBox="0 0 1024 1024" version="1.1" xmlns="http://www.w3.org/2000/svg" p-id="1663" xmlns:xlink="http://www.w3.org/1999/xlink" width="200" height="200"><defs><style type="text/css"></style></defs><path d="M370.21696 39.38304c-11.554133 4.201813-29.40928 16.807253-40.43776 28.883627-26.781013 29.93152-38.331733 66.167467-37.809493 118.678187 0 35.710293 2.628267 47.261013 16.807253 77.195947 29.93152 65.11616 89.268907 85.59616 136.533333 47.261013 60.388693-48.837973 71.417173-164.365653 23.104853-233.683627-12.60544-17.855147-57.238187-46.73536-71.417173-46.209707C393.847467 32.034133 381.76768 35.18464 370.21696 39.38304L370.21696 39.38304zM652.731733 61.44c-19.954347 4.201813-66.69312 50.937173-81.394347 81.394347C546.133333 194.297173 547.188053 259.938987 573.965653 300.373333c23.630507 35.18464 76.66688 49.885867 118.152533 32.556373 55.66464-23.104853 98.198187-108.17536 85.067093-168.0384C761.9584 98.198187 704.201387 50.41152 652.731733 61.44zM149.661013 259.938987c-27.83232 9.45152-58.289493 44.63616-68.79232 78.24384-21.005653 68.79232-13.12768 124.9792 23.630507 166.990507 26.784427 29.934933 44.63616 37.809493 84.022613 34.658987 42.007893-3.15392 68.79232-21.53472 88.221013-61.44 12.602027-25.207467 14.178987-35.18464 14.178987-76.670293 0-37.809493-2.102613-51.462827-11.554133-68.79232-17.329493-33.60768-35.70688-52.51072-65.11616-67.21536C183.268693 249.961813 178.54464 249.961813 149.661013 259.938987zM783.489707 333.981013c-39.38304 19.954347-58.80832 64.590507-58.80832 135.482027 0 52.514133 6.826667 77.195947 26.781013 100.3008 22.053547 25.21088 54.613333 36.232533 96.098987 33.082027 38.32832-3.15392 58.80832-13.653333 75.615573-37.809493 17.32608-25.204053 22.053547-47.264427 22.053547-100.82304 0-42.53696-1.573547-51.462827-14.70464-76.14464-21.527893-40.96-49.360213-59.337387-94.522027-61.44C810.796373 325.5808 796.091733 327.68 783.489707 333.981013L783.489707 333.981013zM446.358187 436.381013c-34.658987 15.755947-55.138987 33.082027-78.24384 66.69312-30.982827 45.1584-59.86304 76.141227-122.88 130.75456-95.573333 82.445653-115.52768 113.42848-116.053333 177.493333-1.051307 77.19936 43.584853 145.466027 106.07616 163.31776 36.232533 10.502827 130.23232 7.877973 200.598187-6.304427 54.613333-10.499413 109.226667-7.87456 175.919787 8.932693 67.21536 16.800427 141.786453 16.800427 180.1216 0 72.465067-32.559787 109.75232-131.812693 79.291733-213.732693-8.400213-22.575787-18.906453-36.758187-43.0592-59.333973-75.615573-69.84704-161.211733-158.068053-188.5184-194.82624-30.457173-40.96-61.965653-67.741013-92.945067-77.718187C518.826667 422.202027 473.1392 424.30464 446.358187 436.381013zM462.114133 582.894933c6.826667 4.1984 7.87456 29.405867 9.45152 162.788693l1.573547 157.535573-62.487893 0c-76.670293 0-106.601813-7.87456-133.382827-35.181227C252.586667 842.830507 246.811307 826.55232 246.811307 785.066667c0-40.434347 5.77536-57.76384 27.83232-80.34304 27.828907-29.40928 49.885867-37.809493 98.198187-37.809493l42.007893 0L414.849707 577.6384l19.95776 0C445.310293 577.6384 457.91232 580.266667 462.114133 582.894933L462.114133 582.894933zM567.138987 749.356373c0 95.573333 0.525653 96.095573 56.18688 96.095573l38.331733 0 0-168.034987 64.068267 0L723.626667 777.714347c-2.0992 127.081813 3.150507 120.255147-94.518613 120.255147-73.519787 0-88.746667-4.201813-108.704427-29.405867-9.980587-13.131093-11.02848-20.48-11.02848-101.87776 0-48.308907 1.573547-89.268907 3.67616-90.845867 1.573547-2.0992 14.701227-3.67616 28.880213-3.67616l25.207467 0L567.138987 749.356373 567.138987 749.356373zM337.13152 724.681387c-29.405867 17.84832-39.908693 56.70912-25.204053 91.89376 10.502827 24.159573 33.082027 35.18464 70.365867 33.082027l29.93152-1.573547L412.224853 716.8l-28.880213-1.57696C361.813333 714.171733 350.2592 716.8 337.13152 724.681387z" p-id="1664" fill="#e6e6e6"></path></svg>