<?xml version="1.0" standalone="no"?><!DOCTYPE svg PUBLIC "-//W3C//DTD SVG 1.1//EN" "http://www.w3.org/Graphics/SVG/1.1/DTD/svg11.dtd"><svg t="1520478941527" class="icon" style="" viewBox="0 0 1607 1024" version="1.1" xmlns="http://www.w3.org/2000/svg" p-id="4843" xmlns:xlink="http://www.w3.org/1999/xlink" width="313.8671875" height="200"><defs><style type="text/css"></style></defs><path d="M0 731.459874c0 144.991797 108.542977 265.294814 251.051287 288.522719l50.254084 4.017405 497.135601 0L808.521006 1022.612167l497.135601 1.387831 50.254084-4.017405C1498.419 996.754688 1606.961977 876.451671 1606.961977 731.459874c0-127.388259-83.854198-235.785148-200.943291-275.959198C1401.78215 203.207646 1189.809257 0 929.043154 0c-188.087595 0-350.755973 105.694272-428.474498 259.305228C463.827662 219.861616 410.651829 195.026749 351.486411 195.026749c-110.95342 0-200.870247 87.360297-200.870247 195.026749 0 28.121835 6.135673 54.855838 17.092232 79.033312C68.368928 516.857407 0 616.416006 0 731.459874zM251.051287 494.798201 226.946857 431.615378C221.32249 419.49012 218.473785 406.56138 218.473785 393.121335c0-52.445395 53.029745-130.383051 136.226549-130.383051 28.560097 0 62.014124 14.243527 81.15158 34.476639l78.522006 54.563663 66.761966-89.040302c75.600257-112.70647 203.134603-190.205863 346.9577-190.205863 202.842428 0 403.055281 193.346743 406.269205 386.620443l0 68.515015 70.633283 18.918325c79.617662 26.807048 133.012625 98.901205 133.012625 179.395392 0 93.276838-95.541194 210.1468-191.812825 225.485983l-44.191454 0-493.629502 0 0 0.58435-10.080034 0 0-0.58435L304.81147 951.467578 271.50353 948.838004c-96.271631-15.339183-202.623297-129.506527-202.623297-222.783365C68.880234 653.083956 131.040445 536.213994 251.051287 494.798201z" p-id="4844" fill="#e6e6e6"></path></svg>