<?xml version="1.0" standalone="no"?><!DOCTYPE svg PUBLIC "-//W3C//DTD SVG 1.1//EN" "http://www.w3.org/Graphics/SVG/1.1/DTD/svg11.dtd"><svg t="1520478853476" class="icon" style="" viewBox="0 0 1024 1024" version="1.1" xmlns="http://www.w3.org/2000/svg" p-id="2237" xmlns:xlink="http://www.w3.org/1999/xlink" width="200" height="200"><defs><style type="text/css"></style></defs><path d="M879.694895 62.238506 144.719544 62.238506c-44.509726 0-80.72044 40.518832-80.72044 90.322122l0 604.163049c0 49.823755 36.210713 90.358961 80.72044 90.358961l266.149663 0 101.354386 113.530706 101.285824-113.530706 266.180362 0c44.49233 0 80.68974-40.534182 80.68974-90.358961L960.379519 152.560628C960.379519 102.756315 924.185178 62.238506 879.694895 62.238506zM512.244059 871.78525l-72.915683-82.928734L159.102113 788.856515c-23.779589 0-43.125193-22.045085-43.125193-49.14121L115.97692 165.992545c0-27.099195 19.345604-49.145303 43.125193-49.145303l706.289008 0c23.74275 0 43.059702 22.046109 43.059702 49.145303l-0.007163 573.72276c0 27.096125-19.313881 49.14121-43.052538 49.14121L585.09425 788.856515 512.244059 871.78525z" p-id="2238" fill="#e6e6e6"></path><path d="M776.022721 503.325433 271.482623 503.325433c-17.663288 0-32.033577 13.017478-32.033577 29.017894 0 16.000416 14.370289 29.015847 32.033577 29.015847l504.540098 0c17.680684 0 32.066323-13.016455 32.066323-29.015847C808.089044 516.342912 793.703405 503.325433 776.022721 503.325433z" p-id="2239" fill="#e6e6e6"></path><path d="M776.022721 327.711763 271.482623 327.711763c-17.663288 0-32.033577 13.030781-32.033577 29.048593 0 15.98302 14.370289 28.986171 32.033577 28.986171l504.540098 0c17.680684 0 32.066323-13.003152 32.066323-28.986171C808.089044 340.743568 793.703405 327.711763 776.022721 327.711763z" p-id="2240" fill="#e6e6e6"></path></svg>