<?xml version="1.0" standalone="no"?><!DOCTYPE svg PUBLIC "-//W3C//DTD SVG 1.1//EN" "http://www.w3.org/Graphics/SVG/1.1/DTD/svg11.dtd"><svg t="1520478888192" class="icon" style="" viewBox="0 0 1024 1024" version="1.1" xmlns="http://www.w3.org/2000/svg" p-id="3010" xmlns:xlink="http://www.w3.org/1999/xlink" width="200" height="200"><defs><style type="text/css"></style></defs><path d="M991.085868 385.216455c-0.462534-11.417027-10.18292-17.676591-21.327748-20.295232-1.598404-0.375553-892.551202-203.044416-906.965493-204.39211-18.614963-1.740644-29.491685 12.307304-28.848025 28.191062 0.170892 4.353145 2.558265 10.133801 4.444219 13.768585l290.603611 643.500986c7.184633 10.012028 22.829961 18.788925 34.968419 13.422707 22.409382-9.906627 218.654952-159.181419 228.968855-161.990395 5.368264-1.462305 139.944286 74.625628 147.376559 74.609255 12.164041-0.034792 22.00313-9.892301 21.979594-22.030759-0.010233-1.044796 20.785396-196.774619 20.785396-196.774619S985.529315 398.304542 987.665978 396.323421 991.231177 388.885008 991.085868 385.216455zM689.724239 656.362922 127.980301 231.402277c0 0 542.1773 276.770558 555.536562 284.397259s12.528338 11.252275 12.772908 21.378913S689.724239 656.362922 689.724239 656.362922z" p-id="3011" fill="#e6e6e6"></path></svg>