<?xml version="1.0" standalone="no"?><!DOCTYPE svg PUBLIC "-//W3C//DTD SVG 1.1//EN" "http://www.w3.org/Graphics/SVG/1.1/DTD/svg11.dtd"><svg t="1520585551973" class="icon" style="" viewBox="0 0 1024 1024" version="1.1" xmlns="http://www.w3.org/2000/svg" p-id="3202" xmlns:xlink="http://www.w3.org/1999/xlink" width="200" height="200"><defs><style type="text/css"></style></defs><path d="M563.034832 701.139999c18.833378 79.595393 102.129879 53.5496 112.482629 145.274965 7.704172 68.388542-40.90199 174.50423-92.389667 161.416629-71.408094-18.151822 27.805761-89.240706 28.116344-125.095731 0.163919-18.384759-14.90796-56.836598-56.241315-52.453933-55.80995 5.89244-43.127831 94.32218-64.264696 137.19982-13.441321 27.270869-41.454137 57.129926-72.305332 56.500134-16.771455-0.345092-40.850226-9.136302-44.180361-32.283326-6.927715-48.07127 39.159277-39.806324 68.285014-88.783459 19.325133-32.507635 33.67232-107.901538-4.011691-117.020585-43.317632-10.482159-48.709689 36.053452-68.293641 88.792086-16.081272 43.29175-40.729444 82.097308-72.305332 84.73726-30.764922 2.553678-51.021803-9.377866-52.21237-36.329526-1.56154-35.018177 75.954676-76.575841 76.317023-117.020585 0.138037-15.373834-5.883813-39.280059-28.116344-44.396043-60.347906-13.88994-46.432084 59.743995-68.293641 80.725569-90.534799-7.221043-12.820156-128.149791 32.136662-145.29222 39.409469-15.020115 82.623573 4.753638 100.421675-32.283326-13.15662-34.931904-53.239017-38.684776-80.33734-56.491506C208.815488 562.991176 126.49387 470.014853 121.179458 358.144762 113.294114 191.80195 268.559483 75.635467 434.505439 59.502431c73.944517-7.186534 148.087463 13.268775 208.883988 16.141663 1.811731-3.036807 12.095463-12.285263 12.043699-12.10409 10.214713-34.621322-26.968914-47.65716-32.136662-60.529079 31.05825-7.885345 87.817203-0.845475 108.462312 28.245753 18.289858 25.778348 8.566901 63.229421 20.084335 88.783459 12.569964 27.87478 43.369396 36.881672 60.253006 52.453934 73.193943 67.491303 122.179705 217.217951 68.285014 326.870829-28.590845 58.173828-78.154636 98.799745-132.549711 129.133303-53.722146 29.94533-117.659005 38.124002-184.796588 72.641796z m60.253005-516.533211c-35.630715-26.520295-87.31682-39.573387-144.602037-32.283325-45.948956 5.840677-110.852071 30.299049-108.453684 72.633169 62.478847-0.63842 80.018131-34.742104 136.570028-36.312271 29.979839-0.82822 66.870138 10.792742 84.349031 24.216808 34.767986 26.675586 56.422488 114.846508 96.401358 92.812404 11.465671-37.140491-27.106951-93.424942-64.264696-121.066785zM293.915093 459.006429c69.139116 81.571043 342.330936 175.927733 425.782729 48.424989 9.559039-14.580123 16.340091-37.90832 16.081272-52.462561-1.794477-95.555883-135.017116-81.752216-224.948005-100.88755-75.488803-16.064017-154.799496-60.718879-220.927686-36.312271-57.9754 21.395683-20.8004 111.964992 4.01169 141.237393z" fill="#e6e6e6" p-id="3203"></path></svg>