<?xml version="1.0" standalone="no"?><!DOCTYPE svg PUBLIC "-//W3C//DTD SVG 1.1//EN" "http://www.w3.org/Graphics/SVG/1.1/DTD/svg11.dtd"><svg t="1520478813024" class="icon" style="" viewBox="0 0 1127 1024" version="1.1" xmlns="http://www.w3.org/2000/svg" p-id="1244" xmlns:xlink="http://www.w3.org/1999/xlink" width="220.1171875" height="200"><defs><style type="text/css"></style></defs><path d="M256 399.36C256 404.992 260.9664 409.6 267.1616 409.6l592.0256 0C865.3824 409.6 870.4 405.0432 870.4 399.36L870.4 368.64C870.4 363.008 865.4336 358.4 859.1872 358.4L267.1616 358.4C261.0176 358.4 256 362.9568 256 368.64L256 399.36z" p-id="1245" fill="#e6e6e6"></path><path d="M256 808.96C256 814.592 260.9664 819.2 267.1616 819.2l592.0256 0C865.3824 819.2 870.4 814.6432 870.4 808.96l0-30.72c0-5.632-4.9664-10.24-11.2128-10.24L267.1616 768C261.0176 768 256 772.5568 256 778.24L256 808.96z" p-id="1246" fill="#e6e6e6"></path><path d="M204.8 153.6 204.8 102.4 51.6608 102.4C22.6816 102.4 0 125.184 0 153.2416l0 819.8656C0 1001.216 22.9888 1024 51.3024 1024l1023.744 0C1103.9232 1024 1126.4 1001.216 1126.4 973.1584L1126.4 153.2416C1126.4 125.184 1103.2576 102.4 1074.7392 102.4L921.6 102.4l0 51.2 153.6 0 0 819.2L51.2 972.8 51.2 156.0064 204.8 153.6z" p-id="1247" fill="#e6e6e6"></path><path d="M409.6 102.4l51.2 0 0 51.2-51.2 0 0-51.2Z" p-id="1248" fill="#e6e6e6"></path><path d="M256 102.4a1 2 0 1 0 102.4 0 1 2 0 1 0-102.4 0Z" p-id="1249" fill="#e6e6e6"></path><path d="M256 604.16C256 609.792 260.9664 614.4 267.1616 614.4l592.0256 0C865.3824 614.4 870.4 609.8432 870.4 604.16l0-30.72c0-5.632-4.9664-10.24-11.2128-10.24L267.1616 563.2C261.0176 563.2 256 567.7568 256 573.44L256 604.16z" p-id="1250" fill="#e6e6e6"></path><path d="M512 102.4a1 2 0 1 0 102.4 0 1 2 0 1 0-102.4 0Z" p-id="1251" fill="#e6e6e6"></path><path d="M768 102.4a1 2 0 1 0 102.4 0 1 2 0 1 0-102.4 0Z" p-id="1252" fill="#e6e6e6"></path><path d="M665.6 102.4l51.2 0 0 51.2-51.2 0 0-51.2Z" p-id="1253" fill="#e6e6e6"></path></svg>