<?xml version="1.0" standalone="no"?><!DOCTYPE svg PUBLIC "-//W3C//DTD SVG 1.1//EN" "http://www.w3.org/Graphics/SVG/1.1/DTD/svg11.dtd"><svg t="1520585630807" class="icon" style="" viewBox="0 0 1024 1024" version="1.1" xmlns="http://www.w3.org/2000/svg" p-id="5189" xmlns:xlink="http://www.w3.org/1999/xlink" width="200" height="200"><defs><style type="text/css"></style></defs><path d="M354.338 286.77c32.174-54.7 45.045-111.006 45.045-111.006l93.309 38.61-27.348 53.090s6.434 6.434 30.567 3.219 180.186-82.049 287.973-64.353c109.398 19.305 175.359 104.571 175.359 172.142v323.367s-11.263 98.137-94.919 133.531c-83.658 33.786-212.361 8.043-212.361 8.043l6.434-53.090s77.222 17.696 123.879 1.609c48.265-16.090 61.134-53.090 61.134-53.090v-384.501s-6.434-40.22-51.483-67.569c-45.045-27.348-65.962-24.132-114.225-17.696s-120.659 41.828-120.659 41.828l-40.22 80.441h276.714v54.7h-168.924v69.178h175.359v48.265l-172.142 6.434v130.311l82.049-37.003-6.434-56.308 65.962-14.478 49.872 130.311-82.049 38.61-9.653-46.657s-154.447 65.962-217.187 70.787c-62.742 4.827-123.879-9.653-152.836-51.483-28.959-41.828-22.523-127.095-22.523-127.095l111.006 3.219s-8.043 48.265 12.87 78.831c22.523 30.567 70.787 22.523 70.787 22.523v-146.399l-170.532-4.827v-46.657h172.142l-1.609-69.178-53.090-9.653s-45.045 69.178-74.004 67.569c-28.959-1.609-32.174-41.828-32.174-41.828l93.309-117.441-51.483-4.827-77.222 91.7-57.917-51.483c1.609 1.609 45.045-35.394 77.222-91.7zM158.065 359.164l-57.917 82.049s123.879 62.742 135.137 112.617c9.653 49.872-170.532 199.489-170.532 199.489l128.703 94.919s133.531-236.493 123.879-313.715-159.27-175.359-159.27-175.359zM227.243 323.77c41.828 0 75.615-33.786 75.615-77.222 0-41.828-33.786-77.222-75.615-77.222s-75.615 33.786-75.615 77.222c0 43.437 33.786 77.222 75.615 77.222z" fill="#e6e6e6" p-id="5190"></path></svg>