<?xml version="1.0" standalone="no"?><!DOCTYPE svg PUBLIC "-//W3C//DTD SVG 1.1//EN" "http://www.w3.org/Graphics/SVG/1.1/DTD/svg11.dtd"><svg t="1520585680981" class="icon" style="" viewBox="0 0 1025 1024" version="1.1" xmlns="http://www.w3.org/2000/svg" p-id="6031" xmlns:xlink="http://www.w3.org/1999/xlink" width="200.1953125" height="200"><defs><style type="text/css"></style></defs><path d="M511.732904 578.891618c93.448711 0 169.425678-75.97492 169.425678-169.423631 0-93.446665-75.975943-169.429771-169.425678-169.429771-93.449735 0-169.427725 75.983107-169.427725 169.429771 0 30.754896 8.23187 59.616586 22.605918 84.501516-49.161988 43.105771-109.22885 134.937581-143.588004 219.936448-42.225686 104.305488-70.750691 231.774622-72.007371 237.203522-3.970619 18.263822 7.545199 36.329113 25.811067 40.366249 2.447866 0.532145 4.896755 0.79924 7.343598 0.79924 15.552954 0 29.518683-10.72374 33.026745-26.474201 0.264026-1.322175 28.5905-127.468111 68.696817-226.545276 36.571648-90.465631 94.487417-167.576475 125.370233-194.709717C437.986852 566.09149 473.385735 578.891618 511.732904 578.891618zM511.732904 307.80992c56.054286 0 101.653974 45.600712 101.653974 101.658067 0 55.989814-45.599688 101.659091-101.653974 101.659091-56.057356 0-101.658067-45.669276-101.658067-101.659091C410.074837 353.410631 455.675548 307.80992 511.732904 307.80992z" p-id="6032" fill="#e6e6e6"></path><path d="M511.732904 32.094468c-207.946818 0-377.041952 169.159605-377.041952 376.97748 0 35.337481 4.896755 70.417077 14.625794 104.10491 5.158734 18.065291 24.025312 28.323404 41.826577 23.228118 18.002866-5.162827 28.461557-23.957771 23.296683-41.893095-7.941237-27.665387-11.979397-56.386876-11.979397-85.440956 0-170.485874 138.78335-309.2068 309.273318-309.2068 170.485874 0 309.20373 138.720926 309.20373 309.2068 0 170.486897-138.718879 309.20373-309.20373 309.20373-18.731495 0-33.887387 15.224457-33.887387 33.88534 0 18.791873 15.156915 33.88534 33.887387 33.88534 207.879276 0 376.976457-169.033733 376.976457-376.975433C888.709361 201.254074 719.61218 32.094468 511.732904 32.094468z" p-id="6033" fill="#e6e6e6"></path></svg>