<?xml version="1.0" standalone="no"?><!DOCTYPE svg PUBLIC "-//W3C//DTD SVG 1.1//EN" "http://www.w3.org/Graphics/SVG/1.1/DTD/svg11.dtd"><svg t="1520585611730" class="icon" style="" viewBox="0 0 1024 1024" version="1.1" xmlns="http://www.w3.org/2000/svg" p-id="4568" xmlns:xlink="http://www.w3.org/1999/xlink" width="200" height="200"><defs><style type="text/css"></style></defs><path d="M950.962 526.992v-0.569c0-1.214 0-2.444-0.034-3.733-0.694-43.493-7.257-111.863-38.035-133.033-35.331-24.198-68.11 20.317-74.548 29.071-46.263 61.974-96.545 143.872-187.296 143.872h-274.284c-90.761 0-141.030-81.897-187.314-143.872-6.438-8.754-39.211-53.269-74.53-29.071-30.791 21.169-37.332 89.539-38.049 133.033-0.017 1.29-0.017 2.519-0.017 3.733v0.569c0 2.887 0.017 21.613 0.017 78.381h-0.103v143.753c0 4.17 0.087 8.187 0.259 12.038 2.558 57.739 23.258 152.861 436.88 152.861 413.602 0 434.301-95.122 436.871-152.861 0.185-3.851 0.269-7.867 0.269-12.038v-143.751h-0.119c-0.001-56.769 0.033-75.494 0.033-78.382zM265.931 837.654c-0.016 0-0.034 0-0.034 0-65.278 0-118.188-52.532-118.188-117.303 0-64.805 52.91-117.321 118.188-117.321 0 0 0.017 0 0.034 0-17.218 0.016-31.155 52.5-31.155 117.221 0 64.838 13.936 117.37 31.155 117.404zM265.948 837.654c17.126-0.034 31.030-52.566 31.030-117.404 0-64.704-13.903-117.186-31.030-117.221 65.239 0.035 118.107 52.551 118.107 117.321 0.001 64.754-52.867 117.27-118.107 117.303zM542.969 733.324l-10.681 18.667c-4.378 7.549-9.417 16.572-12.438 22.097-0.635 1.106-1.473 2.795-5.984 2.795-4.421 0-5.342-1.689-5.952-2.795-3.021-5.524-8.128-14.548-12.446-22.182l-10.631-18.516c-5.215-9.090-0.502-16.507 10.48-16.507h37.182c10.94 0 15.694 7.367 10.471 16.439zM761.857 837.654c-65.239-0.034-118.117-52.55-118.117-117.303 0-64.771 52.877-117.286 118.117-117.321-17.119 0.035-31.038 52.516-31.038 117.221 0 64.838 13.919 117.37 31.038 117.404zM761.924 837.654h-0.035c17.195-0.034 31.131-52.566 31.131-117.404 0-64.721-13.936-117.204-31.131-117.221h0.035c65.273 0 118.182 52.516 118.182 117.321 0.001 64.771-52.909 117.303-118.182 117.303zM377.561 271.207h272.409c10.866 0 21.001-1.172 30.535-3.314 0.15-0.034 0.293-0.076 0.434-0.118-27.059-65.038-91.774-110.925-167.492-110.925-75.435 0-139.452 45.678-166.573 110.29 4.151 1.138 8.413 2.125 12.79 2.929 5.75 0.72 11.703 1.139 17.897 1.139zM92.395 360.973c13.347-8.939 27.79-13.46 43.012-13.46 20.662 0 51.867 8.739 83.257 50.358 3.241 4.252 6.601 8.679 9.974 13.166 42.133 55.906 81.959 108.708 147.583 108.708h275.606c65.634 0 105.444-52.802 147.572-108.708 3.398-4.487 6.737-8.914 10.061-13.284 31.306-41.501 62.528-50.24 83.177-50.24 15.209 0 29.655 4.521 42.957 13.409 0.076 0.050 0.143 0.108 0.218 0.159 9.71-34.444 15.001-76.548 15.236-113.897-3.164-33.013-12.457-70.831-36.855-84.625-35.524-19.955-68.512 16.841-75.091 24.098-46.624 51.186-96.512 118.802-188.051 118.802h-274.284c-91.465 0-141.378-67.617-188.002-118.802-6.561-7.257-39.517-44.054-75.070-24.098-24.425 13.778-33.708 51.503-36.926 84.475 0.222 37.458 5.529 79.653 15.28 114.189 0.117-0.083 0.225-0.166 0.347-0.25z" p-id="4569" fill="#e6e6e6"></path></svg>