<?xml version="1.0" standalone="no"?><!DOCTYPE svg PUBLIC "-//W3C//DTD SVG 1.1//EN" "http://www.w3.org/Graphics/SVG/1.1/DTD/svg11.dtd"><svg t="1520585811607" class="icon" style="" viewBox="0 0 1024 1024" version="1.1" xmlns="http://www.w3.org/2000/svg" p-id="8819" xmlns:xlink="http://www.w3.org/1999/xlink" width="200" height="200"><defs><style type="text/css"></style></defs><path d="M938.666667 512C938.666667 747.52 747.52 938.666667 512 938.666667 276.48 938.666667 85.333333 747.52 85.333333 512 85.333333 276.48 276.48 85.333333 512 85.333333 747.52 85.333333 938.666667 276.48 938.666667 512M611.84 330.24C636.586667 344.32 667.733333 335.786667 682.666667 311.466667 695.893333 287.146667 687.786667 256 663.04 241.493333 638.72 227.413333 607.146667 234.666667 593.066667 260.266667 578.986667 284.586667 587.52 316.16 611.84 330.24M506.88 661.333333C484.266667 661.333333 462.933333 656.64 444.16 647.68L408.32 711.68C438.186667 725.333333 471.466667 734.72 506.88 734.72 527.786667 734.72 547.413333 731.733333 566.613333 726.613333 570.026667 705.706667 581.973333 686.933333 601.6 675.84 621.226667 664.32 643.413333 663.466667 663.04 670.72 701.013333 633.6 725.333333 582.826667 729.173333 526.08L656.213333 525.226667C649.386667 601.6 585.386667 661.333333 506.88 661.333333M506.88 362.666667C585.386667 362.666667 649.386667 421.973333 656.213333 498.773333L729.173333 497.493333C725.333333 441.173333 701.013333 390.4 663.04 353.28 643.413333 360.533333 620.8 359.253333 601.6 348.16 581.973333 337.066667 570.026667 317.866667 566.613333 297.386667 547.413333 292.266667 527.786667 289.28 506.88 289.28 471.466667 289.28 438.186667 297.386667 408.32 312.32L444.16 376.32C462.933333 367.36 484.266667 362.666667 506.88 362.666667M357.12 512C357.12 461.226667 382.293333 416.426667 420.693333 389.546667L384 326.4C338.773333 356.693333 305.066667 402.346667 291.413333 456.106667 307.626667 469.333333 317.866667 489.386667 317.866667 512 317.866667 534.613333 307.626667 554.666667 291.413333 567.893333 305.066667 621.226667 338.773333 667.306667 384 697.173333L420.693333 634.453333C382.293333 607.573333 357.12 562.773333 357.12 512M611.84 693.76C587.52 707.84 578.986667 738.986667 593.066667 763.733333 607.146667 788.053333 638.72 796.586667 663.04 782.506667 687.786667 768 695.893333 736.853333 682.666667 712.533333 667.733333 687.786667 636.586667 679.68 611.84 693.76M245.76 460.8C217.6 460.8 194.56 483.84 194.56 512 194.56 540.16 217.6 563.2 245.76 563.2 274.346667 563.2 296.96 540.16 296.96 512 296.96 483.84 274.346667 460.8 245.76 460.8Z" p-id="8820" fill="#e6e6e6"></path></svg>