<?xml version="1.0" encoding="UTF-8" standalone="no"?>
<!-- Created with Inkscape (http://www.inkscape.org/) -->

<svg
   xmlns:dc="http://purl.org/dc/elements/1.1/"
   xmlns:cc="http://creativecommons.org/ns#"
   xmlns:rdf="http://www.w3.org/1999/02/22-rdf-syntax-ns#"
   xmlns:svg="http://www.w3.org/2000/svg"
   xmlns="http://www.w3.org/2000/svg"
   xmlns:sodipodi="http://sodipodi.sourceforge.net/DTD/sodipodi-0.dtd"
   xmlns:inkscape="http://www.inkscape.org/namespaces/inkscape"
   width="2267.7166"
   height="2267.7166"
   viewBox="0 0 600 600"
   version="1.1"
   id="svg8"
   inkscape:version="0.92.2 2405546, 2018-03-11"
   sodipodi:docname="tmp_act.svg">
  <defs
     id="defs2" />
  <sodipodi:namedview
     id="base"
     pagecolor="#ffffff"
     bordercolor="#666666"
     borderopacity="1.0"
     inkscape:pageopacity="0.0"
     inkscape:pageshadow="2"
     inkscape:zoom="0.175"
     inkscape:cx="886.43032"
     inkscape:cy="839.22085"
     inkscape:document-units="mm"
     inkscape:current-layer="layer1"
     showgrid="true"
     inkscape:window-width="1280"
     inkscape:window-height="711"
     inkscape:window-x="0"
     inkscape:window-y="31"
     inkscape:window-maximized="1"
     units="px"
     inkscape:snap-global="false" />
  <metadata
     id="metadata5">
    <rdf:RDF>
      <cc:Work
         rdf:about="">
        <dc:format>image/svg+xml</dc:format>
        <dc:type
           rdf:resource="http://purl.org/dc/dcmitype/StillImage" />
        <dc:title></dc:title>
      </cc:Work>
    </rdf:RDF>
  </metadata>
  <g
     inkscape:label="Layer 1"
     inkscape:groupmode="layer"
     id="layer1"
     transform="translate(0,303)">
    <path
       style="fill:none;stroke:#000000;stroke-width:0.2619189px;stroke-linecap:butt;stroke-linejoin:miter;stroke-opacity:1"
       d="m -25.392759,112.49639 v 0"
       id="path4575"
       inkscape:connector-curvature="0"
       sodipodi:nodetypes="cc" />
    <path
       style="fill:#000000;fill-opacity:0.74561403;stroke:none;stroke-width:0.60394788px;stroke-linecap:butt;stroke-linejoin:miter;stroke-opacity:1"
       d="m 26.905,-114.83521 109.01132,45.434152 C 117.8478,-16.53437 120.80945,17.047211 135.72001,63.724605 L 26.865866,108.78844 C -1.4590632,36.859586 -4.0101055,-36.428898 26.905,-114.83521 Z"
       id="path3724"
       inkscape:connector-curvature="0"
       inkscape:export-xdpi="96"
       inkscape:export-ydpi="96"
       sodipodi:nodetypes="ccccc" />
    <path
       style="fill:#000000;fill-opacity:0.74509804;stroke:none;stroke-width:0.60394788px;stroke-linecap:butt;stroke-linejoin:miter;stroke-opacity:1"
       d="m 137.13451,-72.915856 c 22.00316,-45.578964 50.1533,-74.069594 93.34357,-94.629264 L 185.6997,-275.834 c -77.06432,30.09729 -134.356782,96.90895 -157.000417,157.25833 z"
       id="path4569"
       inkscape:connector-curvature="0"
       sodipodi:nodetypes="ccccc" />
    <path
       style="fill:#000000;fill-opacity:0.74509804;stroke:none;stroke-width:0.60394788px;stroke-linecap:butt;stroke-linejoin:miter;stroke-opacity:1"
       d="m 234.59881,-168.90463 c 35.39089,-14.86019 86.6829,-18.55251 132.30093,-0.0192 l 45.90671,-109.9076 c -57.64017,-24.09947 -146.80663,-32.84849 -222.88997,0.73416 z"
       id="path4571"
       inkscape:connector-curvature="0"
       sodipodi:nodetypes="ccccc" />
    <path
       style="fill:#000000;fill-opacity:0.74509804;stroke:none;stroke-width:0.60394788px;stroke-linecap:butt;stroke-linejoin:miter;stroke-opacity:0.27272728"
       d="m 415.86811,-276.42846 c 62.95006,26.72193 125.66991,78.72978 157.40176,158.07923 l -108.88015,45.2233 c -23.00648,-47.02271 -46.9299,-70.5593 -94.09412,-94.26737"
       id="path4573"
       inkscape:connector-curvature="0"
       sodipodi:nodetypes="cccc" />
    <path
       style="fill:#000000;fill-opacity:0.74509804;stroke:none;stroke-width:0.60394788px;stroke-linecap:butt;stroke-linejoin:miter;stroke-opacity:1"
       d="M 465.70776,63.642178 574.53438,108.9245 c 28.94918,-67.15995 29.55059,-156.435054 0.0248,-223.96443 l -109.75727,45.185912 c 17.32892,45.69082 16.87299,92.86947 0.9059,133.496196 z"
       id="path4577"
       inkscape:connector-curvature="0"
       sodipodi:nodetypes="ccccc" />
    <path
       style="fill:#000000;fill-opacity:0.74509804;stroke:none;stroke-width:0.60394788px;stroke-linecap:butt;stroke-linejoin:miter;stroke-opacity:1"
       d="m 370.45734,161.58585 c 57.73083,-27.90904 78.6513,-62.918125 94.09691,-94.351073 l 108.01331,44.999143 c -25.57208,65.66897 -77.0875,122.48564 -156.96689,158.70893 z"
       id="path4579"
       inkscape:connector-curvature="0"
       sodipodi:nodetypes="ccccc" />
    <path
       style="fill:#000000;fill-opacity:0.74509804;stroke:none;stroke-width:0.60394788px;stroke-linecap:butt;stroke-linejoin:miter;stroke-opacity:1"
       d="m 234.68125,163.27742 c 53.47789,18.6532 88.53841,14.56395 132.56543,-0.42965 l 44.90178,109.7894 c -71.8367,29.26286 -155.29885,28.60684 -222.96084,-0.0506 z"
       id="path4571-3"
       inkscape:connector-curvature="0"
       sodipodi:nodetypes="ccccc" />
    <path
       style="fill:#000000;fill-opacity:0.74509804;stroke:none;stroke-width:0.60394788px;stroke-linecap:butt;stroke-linejoin:miter;stroke-opacity:1"
       d="m 230.84916,161.59163 c -50.277,-24.85405 -74.90789,-55.92412 -93.87774,-93.906485 L 28.537587,112.75695 c 21.823283,55.58715 70.974994,121.62987 157.174603,158.056 z"
       id="path4579-6"
       inkscape:connector-curvature="0"
       sodipodi:nodetypes="ccccc" />
    <ellipse
       style="opacity:1;fill:#000000;fill-opacity:0.74509804;stroke:none;stroke-width:0.2642611;stroke-opacity:0.27272728"
       id="path976"
       cx="301.94766"
       cy="-3.431741"
       rx="142.62451"
       ry="144.2924"
       transform="matrix(0.99999603,0.00281643,0,1,0,0)" />
  </g>
</svg>
