<?xml version="1.0" standalone="no"?><!DOCTYPE svg PUBLIC "-//W3C//DTD SVG 1.1//EN" "http://www.w3.org/Graphics/SVG/1.1/DTD/svg11.dtd"><svg t="1570586599269" class="icon" viewBox="0 0 1024 1024" version="1.1" xmlns="http://www.w3.org/2000/svg" p-id="14579" xmlns:xlink="http://www.w3.org/1999/xlink" width="200" height="200"><defs><style type="text/css"></style></defs><path d="M975.68 109.696l-92.736 0-110.144 0L627.968 0 396.096 0 251.2 109.696 141.056 109.696l-92.8 0C22.656 109.696 0 138.56 0 164.16L0 210.56C0 236.16 22.656 256 48.256 256l43.136 0 0 719.68c0 25.6 24 48.32 49.6 48.32l741.952 0c25.6 0 49.6-22.72 49.6-48.32L932.544 256l43.136 0C1001.344 256 1024 236.16 1024 210.624L1024 164.224C1024 138.56 1001.344 109.696 975.68 109.696L975.68 109.696zM329.152 848.192c0 19.2-18.24 29.504-37.44 29.504L268.544 877.696c-19.2 0-30.848-10.304-30.848-29.504L237.696 291.712C237.696 272.512 249.344 256 268.544 256l23.168 0c19.2 0 37.376 16.512 37.376 35.712L329.088 848.192 329.152 848.192zM566.848 848.192c0 19.2-24.064 29.504-43.264 29.504L500.416 877.696c-19.2 0-43.264-10.304-43.264-29.504L457.152 291.712C457.152 272.512 481.216 256 500.416 256l23.232 0c19.2 0 43.264 16.512 43.264 35.712L566.912 848.192 566.848 848.192zM786.304 291.712l0 556.48c0 19.2-11.648 29.504-30.848 29.504l-23.232 0c-19.2 0-37.376-10.304-37.376-29.504L694.848 291.712c0-19.2 18.176-35.712 37.44-35.712l23.232 0C774.656 256 786.304 272.512 786.304 291.712L786.304 291.712zM786.304 291.712" p-id="14580" fill="#dfdfdf"></path></svg>