<?xml version="1.0" encoding="UTF-8" standalone="no"?>
<svg
   xmlns:dc="http://purl.org/dc/elements/1.1/"
   xmlns:cc="http://creativecommons.org/ns#"
   xmlns:rdf="http://www.w3.org/1999/02/22-rdf-syntax-ns#"
   xmlns:svg="http://www.w3.org/2000/svg"
   xmlns="http://www.w3.org/2000/svg"
   xmlns:sodipodi="http://sodipodi.sourceforge.net/DTD/sodipodi-0.dtd"
   xmlns:inkscape="http://www.inkscape.org/namespaces/inkscape"
   t="1570526954140"
   class="icon"
   viewBox="0 0 1024 1024"
   version="1.1"
   p-id="3697"
   width="200"
   height="200"
   id="svg8"
   sodipodi:docname="refresh.svg"
   inkscape:version="0.92.1 r15371">
  <metadata
     id="metadata12">
    <rdf:RDF>
      <cc:Work
         rdf:about="">
        <dc:format>image/svg+xml</dc:format>
        <dc:type
           rdf:resource="http://purl.org/dc/dcmitype/StillImage" />
        <dc:title></dc:title>
      </cc:Work>
    </rdf:RDF>
  </metadata>
  <sodipodi:namedview
     pagecolor="#ffffff"
     bordercolor="#666666"
     borderopacity="1"
     objecttolerance="10"
     gridtolerance="10"
     guidetolerance="10"
     inkscape:pageopacity="0"
     inkscape:pageshadow="2"
     inkscape:window-width="1280"
     inkscape:window-height="745"
     id="namedview10"
     showgrid="true"
     inkscape:snap-bbox="true"
     inkscape:bbox-paths="true"
     inkscape:bbox-nodes="true"
     inkscape:zoom="1.18"
     inkscape:cx="-11.231375"
     inkscape:cy="95.404139"
     inkscape:window-x="0"
     inkscape:window-y="27"
     inkscape:window-maximized="1"
     inkscape:current-layer="svg8">
    <inkscape:grid
       type="xygrid"
       id="grid4489" />
  </sodipodi:namedview>
  <defs
     id="defs4">
    <style
       type="text/css"
       id="style2" />
  </defs>
  <path
     d="m 1007.3333,618.66666 q 0,3.33334 -0.6666,4.66667 Q 964,802 828,913 692,1024 509.33334,1024 412,1024 321,987.33334 230,950.66668 158.66667,882.66666 l -86.000001,86.00001 q -12.666672,12.66667 -29.999997,12.66667 -17.333338,0 -30.000005,-12.66667 Q 0,956 0,938.66666 V 640.00001 Q 0,622.66667 12.666667,609.99999 25.333334,597.33333 42.666672,597.33333 H 341.33334 q 17.33333,0 29.99999,12.66666 Q 384,622.66667 384,640.00001 q 0,17.33332 -12.66667,29.99998 L 280,761.33333 q 47.33334,44 107.33333,68.00001 60,23.99999 124.66667,23.99999 89.33333,0 166.66666,-43.33332 Q 756,766.66667 802.66667,690.66667 810,679.33334 838,612.66667 q 5.33334,-15.33333 20,-15.33333 h 128 q 8.66666,0 15,6.33333 6.3333,6.33332 6.3333,14.99999 z M 1024,85.333333 V 384 q 0,17.33334 -12.6667,30 -12.66662,12.66666 -29.99997,12.66666 H 682.66667 q -17.33334,0 -30,-12.66666 Q 640,401.33334 640,384 q 0,-17.33334 12.66667,-30.00001 l 92,-91.99998 Q 646,170.66667 512,170.66667 q -89.33333,0 -166.66667,43.33332 Q 268,257.33333 221.33334,333.33333 214,344.66667 186,411.33333 q -5.33334,15.33333 -20,15.33333 H 33.333336 q -8.666668,0 -15.000002,-6.33333 Q 12,414 12.000001,405.33333 v -4.66666 Q 55.333334,222 192,111 328.66666,0 512,0 q 97.33333,0 189.33333,37.000001 92,37 163.33334,104.333329 l 86.66666,-85.999997 q 12.66667,-12.666667 30,-12.666667 17.33335,0 29.99997,12.666667 12.6667,12.666666 12.6667,30 z"
     p-id="3698"
     id="path6"
     inkscape:connector-curvature="0"
     style="fill:#dfdfdf;stroke-width:1.16666675" />
</svg>
